<?xml version="1.0" encoding="UTF-8"?>
<svg version="1.1" xmlns="http://www.w3.org/2000/svg" width="512" height="512">
<path d="M0 0 C10.55807519 3.43075916 22.61692042 9.31440024 30.36328125 17.49609375 C32.85968196 20.12551759 34.61849181 21.64651497 38 23 C41.98414455 22.8898626 45.79724122 21.79545525 49.65063477 20.84887695 C58.44691208 18.80713972 67.01992741 18.48758028 76 18.5 C77.10462585 18.49657089 77.10462585 18.49657089 78.23156738 18.49307251 C87.40651634 18.4944583 95.84388099 19.33798178 104.75 21.6875 C110.40524634 23.19726802 110.40524634 23.19726802 116.02587891 22.22265625 C120.00008861 19.83511586 123.21779038 16.70954798 126.47949219 13.44482422 C138.94010027 1.60444551 162.34387541 -4.72906202 179.125 -5.4375 C182.2089012 -5.3107023 183.79154715 -5.10676853 186.5625 -3.6875 C191.77062594 6.04943111 190.59878363 19.21994976 191 30 C192.85625 29.41992188 192.85625 29.41992188 194.75 28.828125 C213.99660477 22.98231665 234.06806357 18.90448615 254.25 18.796875 C255.10698486 18.79117493 255.96396973 18.78547485 256.84692383 18.77960205 C258.65200594 18.7702168 260.45710469 18.76364409 262.26220703 18.75976562 C264.96549 18.7501231 267.66799046 18.71906333 270.37109375 18.6875 C284.7406913 18.59900389 298.60107479 19.94420335 312.25 24.75 C313.36701294 25.13623535 313.36701294 25.13623535 314.5065918 25.53027344 C341.34906952 35.14635082 360.90062789 55.72977679 373.10498047 81.04394531 C376.64855647 88.78838911 379.62060793 96.6677626 381.125 105.0625 C381.9915766 108.45323288 382.58723188 109.68233042 385.390625 111.83984375 C387.44047494 112.98013985 389.5140556 114.07848047 391.60546875 115.140625 C404.56502132 122.23929821 414.68364629 133.93693463 421.375 146.9375 C421.85803589 147.86695435 421.85803589 147.86695435 422.35083008 148.81518555 C427.15441624 158.70581904 428.54106166 168.85237814 428.4375 179.75 C428.42920166 180.88598633 428.42090332 182.02197266 428.41235352 183.19238281 C428.00620651 203.51418659 421.00056521 220.69014188 406.7265625 235.33203125 C379.21012106 261.46819812 337.88321792 267.12447901 301.55126953 267.29516602 C299.86466034 267.30662527 298.17808566 267.3269799 296.49169922 267.35668945 C277.93947717 267.68156206 261.04694041 264.38700751 244 257 C243.67 256.67 243.34 256.34 243 256 C233.53233893 256.0129552 224.20525433 258.99362658 215.109375 261.296875 C194.99717181 266.19922453 175.20626316 267.53684029 154.52954102 267.50097656 C151.87106194 267.50032213 149.21582557 267.51041241 146.55786133 267.54199219 C127.06086454 267.75696673 110.16057032 267.91381289 95 254 C89.97709258 248.55236143 85 242.65623447 85 235 C73.88033245 234.27216942 73.88033245 234.27216942 63.71875 237.56640625 C62.3329611 239.54883606 62.3329611 239.54883606 61.22265625 241.7421875 C56.96770247 249.59957819 48.16718315 254.22745625 40 257 C24.59812341 261.43410704 6.53559142 260.89704603 -7.7890625 253.57421875 C-10.28226744 252.1511062 -12.642424 250.63613198 -15 249 C-16.60875 247.88625 -16.60875 247.88625 -18.25 246.75 C-25.68609332 239.31390668 -28.31299863 231.53870804 -28.39160156 221.26831055 C-28.21445664 211.68196181 -23.6775126 204.6775126 -17 198 C-19.31 195.36 -21.62 192.72 -24 190 C-35.21605615 195.07833427 -44.30125504 201.19108833 -53.6171875 209.26953125 C-57.37922747 212.00163569 -59.43707534 211.579419 -64 211 C-66.5 209.5 -66.5 209.5 -68 207 C-68.45377206 203.82359559 -68.68364604 202.01288256 -68 199 C-66 196.4375 -66 196.4375 -63 194 C-62.19755859 193.23623047 -62.19755859 193.23623047 -61.37890625 192.45703125 C-57.19915367 188.52896269 -52.66903401 185.3075568 -47.875 182.1875 C-47.28920166 181.80239258 -46.70340332 181.41728516 -46.09985352 181.02050781 C-42.51382005 178.73862432 -39.08234717 177.17258908 -35 176 C-35.56589844 174.95199219 -36.13179687 173.90398437 -36.71484375 172.82421875 C-37.45585288 171.44537898 -38.1967315 170.06646906 -38.9375 168.6875 C-39.31068359 167.99720703 -39.68386719 167.30691406 -40.06835938 166.59570312 C-40.42607422 165.92861328 -40.78378906 165.26152344 -41.15234375 164.57421875 C-41.6472229 163.65515747 -41.6472229 163.65515747 -42.15209961 162.7175293 C-43 161 -43 161 -44 158 C-53.7695721 160.79130632 -63.53987476 165.35991651 -72 171 C-78.90410959 171.65753425 -78.90410959 171.65753425 -82.5 169.5 C-84.18959029 166.68401619 -84.5184812 164.36493864 -84.62890625 161.09765625 C-83.17902207 156.26170715 -78.89440721 153.80682817 -74.70703125 151.46484375 C-73.08121785 150.61145315 -71.44944654 149.76933577 -69.8125 148.9375 C-68.54635864 148.28225342 -68.54635864 148.28225342 -67.25463867 147.61376953 C-61.63230049 144.73737547 -55.97960889 142.05981386 -50 140 C-50.144375 139.41476562 -50.28875 138.82953125 -50.4375 138.2265625 C-52.34055892 129.42491497 -54.96095648 116.79166561 -50.66796875 108.39453125 C-49.37297559 106.89779178 -48.02371913 105.4470579 -46.63671875 104.03515625 C-42.68178884 99.8288734 -40.01277414 94.64849654 -37.125 89.6875 C-36.55370361 88.7190918 -35.98240723 87.75068359 -35.39379883 86.75292969 C-31.74087858 80.59355842 -31.74087858 80.59355842 -29 74 C-29.71534299 71.04163482 -29.71534299 71.04163482 -31.125 67.9375 C-39.23233137 46.92947196 -41.72871121 20.92414683 -36 -1 C-30.50451408 -11.27416933 -8.59297276 -2.54243948 0 0 Z M-21 13 C-21.45362711 28.01505728 -21.79087993 42.59239028 -17 57 C-16.34 57.66 -15.68 58.32 -15 59 C-14.175 57.989375 -13.35 56.97875 -12.5 55.9375 C-7.01938041 49.59419029 -0.64610023 44.63560104 6.125 39.75 C6.71087891 39.32549561 7.29675781 38.90099121 7.90039062 38.46362305 C11.4592495 35.93841808 15.03343546 33.85668978 19 32 C17.52299535 27.46641629 13.94444307 25.79519609 10 23.625 C9.30100586 23.23578369 8.60201172 22.84656738 7.88183594 22.44555664 C-0.66037228 17.86964329 -11.20598199 13 -21 13 Z M147.5625 20.9375 C146.588573 21.42283203 146.588573 21.42283203 145.5949707 21.91796875 C141.09126931 24.24693169 136.99514708 26.87089771 133 30 C133 30.66 133 31.32 133 32 C134.74895933 33.11188136 136.5526122 34.13806454 138.375 35.125 C144.44316263 38.55980904 149.68386421 42.51272409 155 47 C155.57492188 47.45246094 156.14984375 47.90492188 156.7421875 48.37109375 C160.69407682 51.4937006 163.83905567 55.11046921 167 59 C169.49443789 56.50556211 169.74473408 54.72485308 170.5625 51.3125 C170.81128906 50.29800781 171.06007812 49.28351563 171.31640625 48.23828125 C172.96211635 40.44231742 173.12117338 33.00145939 173.0625 25.0625 C173.05798828 23.90169922 173.05347656 22.74089844 173.04882812 21.54492188 C173.03710647 18.69656066 173.0206976 15.84830778 173 13 C164.14487962 13 155.3676587 17.03629561 147.5625 20.9375 Z M53 38 C52.71203022 41.49220492 52.55096266 44.98467449 52.37890625 48.484375 C52.02653545 51.75379482 51.50213727 54.09263755 50 57 C46.88450128 58.55774936 43.3955612 58.56480622 40 58 C38.2890625 56.87109375 38.2890625 56.87109375 37 55 C36.48828125 52.08203125 36.48828125 52.08203125 36.3125 48.8125 C36.24675781 47.72582031 36.18101563 46.63914062 36.11328125 45.51953125 C36.05720703 44.27236328 36.05720703 44.27236328 36 43 C23.05273894 46.34842959 12.40225953 54.76756781 3 64 C2.18474854 64.77802979 2.18474854 64.77802979 1.35302734 65.57177734 C-2.75325896 69.5551544 -6.2369061 73.6814138 -9.5 78.375 C-10.24443359 79.43412598 -10.24443359 79.43412598 -11.00390625 80.51464844 C-16.36040462 88.28288717 -21.15471027 96.39495359 -25.92382812 104.53271484 C-26.52646484 105.5583252 -27.12910156 106.58393555 -27.75 107.640625 C-28.28109375 108.55360352 -28.8121875 109.46658203 -29.359375 110.40722656 C-31 113 -31 113 -33.17431641 115.70336914 C-36.0769063 119.35470146 -35.49014627 122.53266685 -35 127 C-34.44731531 130.36294585 -33.7758696 133.68177196 -33 137 C-32.18402344 136.97679687 -31.36804687 136.95359375 -30.52734375 136.9296875 C-22.26321354 136.80379215 -14.11254839 137.1885919 -5.875 137.875 C-4.87976318 137.95347168 -3.88452637 138.03194336 -2.85913086 138.11279297 C-1.91303955 138.19674316 -0.96694824 138.28069336 0.0078125 138.3671875 C0.84973145 138.44050293 1.69165039 138.51381836 2.55908203 138.58935547 C5.30957822 139.05208147 7.5152096 139.72644505 10 141 C11.60812761 144.70568536 12.27848338 146.93248038 11.25 150.875 C10 153 10 153 8 154 C-3.62702755 154.61289758 -15.38924175 153.62491341 -27 153 C-25.8774654 155.27208206 -24.75208479 157.54267645 -23.625 159.8125 C-23.30789062 160.45509766 -22.99078125 161.09769531 -22.6640625 161.75976562 C-21.23541389 164.63194461 -19.78214527 167.3267821 -18 170 C-15.04905259 170.29030488 -15.04905259 170.29030488 -11.625 170.0625 C5.14784409 169.71702432 5.14784409 169.71702432 9.78125 173.42578125 C11.48073873 175.62095419 11.80277306 177.23882279 12 180 C11.1875 182.75 11.1875 182.75 10 185 C7.56612247 186.21693876 5.58161154 186.31959896 2.875 186.5625 C1.96492188 186.64628906 1.05484375 186.73007812 0.1171875 186.81640625 C-0.58148438 186.87699219 -1.28015625 186.93757812 -2 187 C2.16053064 192.68605855 7.08609019 196.23226714 13 200 C14.0209375 200.65226563 15.041875 201.30453125 16.09375 201.9765625 C41.77108181 217.51494787 71.65917296 222.32872448 101.0078125 216.21875 C120.20045785 211.49189892 140.25456154 202.62361925 154 188 C154 187.67 154 187.34 154 187 C153.31292969 186.96261719 152.62585938 186.92523438 151.91796875 186.88671875 C150.56638672 186.78810547 150.56638672 186.78810547 149.1875 186.6875 C148.29417969 186.62949219 147.40085938 186.57148438 146.48046875 186.51171875 C143.62930063 185.92352501 142.66300856 185.36721415 141 183 C140.6015625 181.0625 140.6015625 181.0625 140.625 179 C140.61726562 178.319375 140.60953125 177.63875 140.6015625 176.9375 C141.13059912 174.36492978 141.88610026 173.54775813 144 172 C146.42578125 171.26953125 146.42578125 171.26953125 149.3125 170.8125 C150.37597656 170.63976562 151.43945312 170.46703125 152.53515625 170.2890625 C156.22328902 169.9813716 159.57218666 170.33119946 163.25 170.6875 C166.75799333 170.92930947 166.75799333 170.92930947 170 170 C174.61251811 165.18187187 177.49471995 159.51668567 179 153 C178.4016333 153.03029297 177.8032666 153.06058594 177.18676758 153.09179688 C170.45912702 153.42775895 163.73055474 153.72868344 157 154 C156.25105469 154.03158203 155.50210938 154.06316406 154.73046875 154.09570312 C152.9250818 154.16514108 151.11875537 154.20894874 149.3125 154.25 C148.33925781 154.27578125 147.36601562 154.3015625 146.36328125 154.328125 C144 154 144 154 142.19140625 152.734375 C140.76405449 150.65652522 140.59654536 149.50400842 140.625 147 C140.61726562 146.319375 140.60953125 145.63875 140.6015625 144.9375 C141.13468197 142.34507591 141.84898325 141.54034674 144 140 C157.17535476 136.58132194 171.47140713 136.83159428 185 137 C185.80604026 134.02052974 186.43670405 131.0345298 187 128 C187.15984375 127.24203125 187.3196875 126.4840625 187.484375 125.703125 C188.36170941 118.01354696 184.10257767 112.97626867 179.84375 107.0546875 C176.96804446 103.04701386 174.54678372 98.85421274 172.125 94.5625 C159.16191902 72.10389194 142.60441653 54.28757709 119 43 C118.34 43 117.68 43 117 43 C116.89042969 43.83144531 116.78085938 44.66289062 116.66796875 45.51953125 C116.50941406 46.60621094 116.35085937 47.69289063 116.1875 48.8125 C115.96126953 50.43091797 115.96126953 50.43091797 115.73046875 52.08203125 C114.97346591 55.10599446 114.55384758 56.26766982 112 58 C110.0625 58.3984375 110.0625 58.3984375 108 58.375 C107.319375 58.38273437 106.63875 58.39046875 105.9375 58.3984375 C103.40981938 57.87863221 102.62125169 56.98315076 101 55 C100.56762695 53.09887695 100.56762695 53.09887695 100.48828125 50.98828125 C100.45283203 50.23095703 100.41738281 49.47363281 100.38085938 48.69335938 C100.35830078 47.90767578 100.33574219 47.12199219 100.3125 46.3125 C100.27833984 45.51521484 100.24417969 44.71792969 100.20898438 43.89648438 C100.12661896 41.93148096 100.06162933 39.96576304 100 38 C98.62705778 37.65828994 97.25149882 37.32708883 95.875 37 C95.10929688 36.814375 94.34359375 36.62875 93.5546875 36.4375 C90.66526648 35.9426756 87.92602801 35.93215008 85 36 C84.98018066 36.70084717 84.96036133 37.40169434 84.93994141 38.1237793 C84.84443834 41.31205162 84.73486129 44.49969147 84.625 47.6875 C84.5940625 48.79029297 84.563125 49.89308594 84.53125 51.02929688 C84.49257812 52.09599609 84.45390625 53.16269531 84.4140625 54.26171875 C84.36693115 55.73064575 84.36693115 55.73064575 84.31884766 57.22924805 C83.98177218 60.15839782 83.31391621 62.36545499 82 65 C78.88450128 66.55774936 75.3955612 66.56480622 72 66 C70.40869141 64.86694336 70.40869141 64.86694336 69 63 C68.56762695 60.1809082 68.56762695 60.1809082 68.48828125 56.80078125 C68.45283203 55.59228516 68.41738281 54.38378906 68.38085938 53.13867188 C68.35830078 51.87603516 68.33574219 50.61339844 68.3125 49.3125 C68.27833984 48.03826172 68.24417969 46.76402344 68.20898438 45.45117188 C68.12639216 42.30086897 68.05727665 39.15084843 68 36 C59.99095623 35.39298485 59.99095623 35.39298485 53 38 Z M199.35449219 45.29907227 C197 46 197 46 194.52832031 46.44897461 C191.96738964 47.00464332 190.18253555 47.53893384 188 49 C185.90831941 52.62226197 184.97502863 56.39137867 184 60.4375 C183.57267578 62.01241211 183.57267578 62.01241211 183.13671875 63.61914062 C182.38738943 66.40515416 181.68272936 69.19705895 181 72 C180.761604 72.68006104 180.52320801 73.36012207 180.27758789 74.06079102 C179.88464117 76.80588845 180.80392111 78.00698799 182.24609375 80.34375 C182.75019775 81.17269775 183.25430176 82.00164551 183.77368164 82.85571289 C184.59727173 84.16463501 184.59727173 84.16463501 185.4375 85.5 C185.98720459 86.39259521 186.53690918 87.28519043 187.10327148 88.20483398 C193.33248944 99.69920587 193.33248944 99.69920587 201.6953125 109.28125 C203.95196158 112.25408112 203.39179975 115.85799721 203.3125 119.4375 C203.29993164 120.63898682 203.29993164 120.63898682 203.28710938 121.86474609 C203.15681962 128.36490222 202.39576982 134.64426244 201 141 C201.90878906 141.3403125 202.81757813 141.680625 203.75390625 142.03125 C210.75826421 144.71040987 217.55288844 147.61998447 224.1875 151.125 C224.81019775 151.44919922 225.43289551 151.77339844 226.07446289 152.10742188 C229.57699058 154.00104343 232.50748 155.86915171 235 159 C235.83566567 162.42820325 235.596446 165.807108 234 169 C230.78555893 170.60722054 227.48965598 170.4310093 224 170 C220.578125 168.42578125 220.578125 168.42578125 217.25 166.3125 C216.04359867 165.57540962 214.83389251 164.84370355 213.62109375 164.1171875 C213.02022949 163.7572168 212.41936523 163.39724609 211.80029297 163.02636719 C207.45869989 160.55117634 202.79649267 158.41345919 198 157 C195.00196815 157.66630167 195.00196815 157.66630167 193.92504883 159.55053711 C193.44588013 160.5290564 193.44588013 160.5290564 192.95703125 161.52734375 C192.60576172 162.23697266 192.25449219 162.94660156 191.89257812 163.67773438 C191.53615234 164.42345703 191.17972656 165.16917969 190.8125 165.9375 C190.44447266 166.67935547 190.07644531 167.42121094 189.69726562 168.18554688 C187.7006763 171.92634013 187.7006763 171.92634013 187 176 C187.78761719 176.38929688 188.57523437 176.77859375 189.38671875 177.1796875 C198.05621959 181.63242521 205.42927615 186.85907318 213 193 C213.928125 193.71800781 214.85625 194.43601562 215.8125 195.17578125 C218 197 218 197 219 199 C219.45070423 206.09859155 219.45070423 206.09859155 218 209 C214.7560613 210.62196935 211.50576887 210.57160147 208 210 C205.40776978 208.66246302 203.35752082 206.87142406 201.1875 204.9375 C199.97450048 203.92201111 198.75831975 202.91031065 197.5390625 201.90234375 C196.94383789 201.40589355 196.34861328 200.90944336 195.73535156 200.39794922 C189.6789112 195.51905536 183.14936454 191.94746808 176 189 C175.25234375 189.81984375 174.5046875 190.6396875 173.734375 191.484375 C172.73963227 192.57296139 171.74483787 193.66150055 170.75 194.75 C170.25886719 195.28882813 169.76773438 195.82765625 169.26171875 196.3828125 C166.57126836 199.3243716 163.8468489 202.2073768 161 205 C161.804375 204.835 162.60875 204.67 163.4375 204.5 C166.23144647 204.10786716 168.87611319 203.84187539 171.6875 203.75 C172.80705078 203.71132813 172.80705078 203.71132813 173.94921875 203.671875 C176 204 176 204 177.74609375 205.265625 C179.24990354 207.34566096 179.40392834 208.45430616 179.375 211 C179.38660156 212.0209375 179.38660156 212.0209375 179.3984375 213.0625 C178.85713503 215.69471593 178.18632127 216.41925855 176 218 C173.61692031 218.8807674 171.38970525 219.58058882 168.9375 220.1875 C168.24084229 220.36112061 167.54418457 220.53474121 166.82641602 220.71362305 C157.67526252 222.78092921 147.65344366 223.1331656 138.43359375 221.28515625 C134.13724275 220.92834894 131.35616156 222.238198 127.625 224.125 C119.32236164 228.05965119 110.8560951 230.62156852 102 233 C104.29919627 239.39395533 107.8328432 243.30563628 113.84765625 246.5234375 C124.1778621 251.04208633 133.62348267 251.16771633 144.75 251.125 C146.03970703 251.12089111 147.32941406 251.11678223 148.65820312 251.11254883 C175.41129015 250.95758887 200.05193486 247.62403361 226 241 C227.33312678 240.66584153 228.66638214 240.33219314 230 240 C229.95359375 238.88882813 229.9071875 237.77765625 229.859375 236.6328125 C229.56175502 226.45420932 230.25864018 219.0128997 235.75 210.1875 C243.48400423 202.66832922 251.73322714 200.60017025 262.32421875 200.734375 C266.80575866 201.05822698 270.88272821 201.9796938 275.18359375 203.24609375 C299.36545909 209.71918669 327.75855147 203.74714951 351 196 C353.15625 195.796875 353.15625 195.796875 355.5 195.75 C356.66015625 195.71132813 356.66015625 195.71132813 357.84375 195.671875 C360 196 360 196 361.7578125 197.265625 C363.24731104 199.34530221 363.4038392 200.46215068 363.375 203 C363.38273437 203.680625 363.39046875 204.36125 363.3984375 205.0625 C362.87942339 207.58633332 361.94573252 208.33935851 360 210 C358.14086914 210.82788086 358.14086914 210.82788086 356.03515625 211.46484375 C355.24463867 211.70565674 354.45412109 211.94646973 353.63964844 212.19458008 C352.78918945 212.43974365 351.93873047 212.68490723 351.0625 212.9375 C350.18239258 213.19619873 349.30228516 213.45489746 348.39550781 213.72143555 C322.0142031 221.2626303 294.04831683 224.56120382 267.13671875 217.875 C261.68589798 216.58309091 256.81066205 216.07758726 251.6875 218.6875 C247.5330119 222.26229209 246.17358221 224.43776011 245.5625 229.9375 C245.78469824 234.31562836 246.95634737 236.73894361 250 240 C255.98445842 244.45169067 263.25430201 246.01319823 270.375 247.75 C271.66651978 248.06626343 271.66651978 248.06626343 272.98413086 248.38891602 C283.55845288 250.80899403 294.00573798 251.23288674 304.8125 250.75 C305.88781982 250.70262695 306.96313965 250.65525391 308.07104492 250.60644531 C339.73107369 249.00270182 374.88303976 243.76159858 397.74609375 219.6875 C409.73062687 205.39745011 412.25487936 189.55471887 411.22314453 171.50097656 C410.10103151 158.92447135 403.2156822 146.59856063 394 138 C391.70193928 136.28159553 389.36161565 134.62967655 387 133 C387.01571045 134.01425049 387.0314209 135.02850098 387.04760742 136.07348633 C387.10190319 139.83610087 387.13634851 143.59868078 387.16479492 147.36157227 C387.17988243 148.99021223 387.20035506 150.61881156 387.22631836 152.24731445 C387.26270449 154.58815535 387.2797262 156.92845919 387.29296875 159.26953125 C387.30845261 159.99775589 387.32393646 160.72598053 387.33988953 161.47627258 C387.34156946 166.52127753 387.34156946 166.52127753 385.6027832 168.95825195 C382.61856531 170.89787995 379.41388448 170.52740595 376 170 C373.76298891 168.55676704 373.20303725 167.67676097 372.44677734 165.15600586 C371.99482442 162.97502428 371.8429476 160.97876772 371.7890625 158.75390625 C370.66193739 123.0685687 363.8814894 87.31501518 338 61 C337.24074219 60.22785156 336.48148438 59.45570313 335.69921875 58.66015625 C300.97326856 25.41190607 241.24875051 31.8954798 199.35449219 45.29907227 Z M-5.5703125 211.4609375 C-6.08335938 212.09257812 -6.59640625 212.72421875 -7.125 213.375 C-7.64320312 214.00148438 -8.16140625 214.62796875 -8.6953125 215.2734375 C-11.46572322 218.93966965 -11.59875875 222.54257372 -11 227 C-7.07962348 234.55035478 -0.84944576 238.3525538 7 241 C20.01061338 244.30321272 30.79420649 242.66816591 42.63671875 236.53515625 C45.24340171 235.06345216 45.24340171 235.06345216 47 232 C46.04299194 231.7071814 46.04299194 231.7071814 45.06665039 231.40844727 C29.91306104 226.71555603 15.07698814 221.78468197 2.22265625 212.23046875 C-1.72212719 209.35658314 -1.72212719 209.35658314 -5.5703125 211.4609375 Z " fill="#000000" transform="translate(84,165)"/>
<path d="M0 0 C0.87269531 -0.0038269 1.74539062 -0.00765381 2.64453125 -0.01159668 C4.48699092 -0.0143149 6.32948924 -0.00695994 8.171875 0.00976562 C10.99045934 0.03117752 13.80649485 0.00996199 16.625 -0.015625 C18.41667229 -0.01298171 20.20834299 -0.00785669 22 0 C22.84175781 -0.00809692 23.68351562 -0.01619385 24.55078125 -0.02453613 C28.34840276 0.03625844 30.36750599 0.0796787 33.51953125 2.33007812 C35.31140907 4.9942553 35.75138654 7.19717524 35.5625 10.40234375 C34.41232376 14.75544134 31.14199511 17.46968138 28 20.53125 C27.02698649 21.51268058 26.05573631 22.49586145 25.0859375 23.48046875 C22.41165359 26.18583392 19.71183415 28.86355058 17 31.53125 C18.44632813 31.56992188 18.44632813 31.56992188 19.921875 31.609375 C21.81679687 31.69445312 21.81679687 31.69445312 23.75 31.78125 C25.62945312 31.85085937 25.62945312 31.85085937 27.546875 31.921875 C31.45703292 32.61190287 32.71085229 33.33550914 35 36.53125 C35.53125 38.53125 35.53125 38.53125 35.5 40.53125 C35.5103125 41.19125 35.520625 41.85125 35.53125 42.53125 C34.72011424 45.58493756 33.53019712 46.62236769 31 48.53125 C28.00263779 49.13239553 25.04890723 49.09182764 22 49.0625 C21.12730469 49.0663269 20.25460938 49.07015381 19.35546875 49.07409668 C17.51300908 49.0768149 15.67051076 49.06945994 13.828125 49.05273438 C11.00954066 49.03132248 8.19350515 49.05253801 5.375 49.078125 C3.58332771 49.07548171 1.79165701 49.07035669 0 49.0625 C-0.84175781 49.07059692 -1.68351563 49.07869385 -2.55078125 49.08703613 C-6.34840276 49.02624156 -8.36750599 48.9828213 -11.51953125 46.73242188 C-13.31140907 44.0682447 -13.75138654 41.86532476 -13.5625 38.66015625 C-12.41232376 34.30705866 -9.14199511 31.59281862 -6 28.53125 C-5.02698649 27.54981942 -4.05573631 26.56663855 -3.0859375 25.58203125 C-0.41165359 22.87666608 2.28816585 20.19894942 5 17.53125 C3.55367187 17.49257812 3.55367187 17.49257812 2.078125 17.453125 C0.81484375 17.39640625 -0.4484375 17.3396875 -1.75 17.28125 C-3.00296875 17.23484375 -4.2559375 17.1884375 -5.546875 17.140625 C-9.45703292 16.45059713 -10.71085229 15.72699086 -13 12.53125 C-13.53125 10.53125 -13.53125 10.53125 -13.5 8.53125 C-13.51546875 7.54125 -13.51546875 7.54125 -13.53125 6.53125 C-11.69061453 -0.39820116 -5.94975317 -0.05723107 0 0 Z " fill="#000000" transform="translate(173,111.46875)"/>
<path d="M0 0 C0.87269531 -0.0038269 1.74539062 -0.00765381 2.64453125 -0.01159668 C4.48699092 -0.0143149 6.32948924 -0.00695994 8.171875 0.00976562 C10.99045934 0.03117752 13.80649485 0.00996199 16.625 -0.015625 C18.41667229 -0.01298171 20.20834299 -0.00785669 22 0 C22.84175781 -0.00809692 23.68351562 -0.01619385 24.55078125 -0.02453613 C28.34840276 0.03625844 30.36750599 0.0796787 33.51953125 2.33007812 C35.31140907 4.9942553 35.75138654 7.19717524 35.5625 10.40234375 C34.41232376 14.75544134 31.14199511 17.46968138 28 20.53125 C27.02698649 21.51268058 26.05573631 22.49586145 25.0859375 23.48046875 C22.41165359 26.18583392 19.71183415 28.86355058 17 31.53125 C18.44632813 31.56992188 18.44632813 31.56992188 19.921875 31.609375 C21.81679688 31.69445312 21.81679688 31.69445312 23.75 31.78125 C25.62945312 31.85085937 25.62945312 31.85085937 27.546875 31.921875 C31.45703292 32.61190287 32.71085229 33.33550914 35 36.53125 C35.53125 38.53125 35.53125 38.53125 35.5 40.53125 C35.5103125 41.19125 35.520625 41.85125 35.53125 42.53125 C34.72011424 45.58493756 33.53019712 46.62236769 31 48.53125 C28.00263779 49.13239553 25.04890723 49.09182764 22 49.0625 C21.12730469 49.0663269 20.25460937 49.07015381 19.35546875 49.07409668 C17.51300908 49.0768149 15.67051076 49.06945994 13.828125 49.05273438 C11.00954066 49.03132248 8.19350515 49.05253801 5.375 49.078125 C3.58332771 49.07548171 1.79165701 49.07035669 0 49.0625 C-0.84175781 49.07059692 -1.68351563 49.07869385 -2.55078125 49.08703613 C-6.34840276 49.02624156 -8.36750599 48.9828213 -11.51953125 46.73242188 C-13.31140907 44.0682447 -13.75138654 41.86532476 -13.5625 38.66015625 C-12.41232376 34.30705866 -9.14199511 31.59281862 -6 28.53125 C-5.02698649 27.54981942 -4.05573631 26.56663855 -3.0859375 25.58203125 C-0.41165359 22.87666608 2.28816585 20.19894942 5 17.53125 C3.55367187 17.49257812 3.55367187 17.49257812 2.078125 17.453125 C0.81484375 17.39640625 -0.4484375 17.3396875 -1.75 17.28125 C-3.00296875 17.23484375 -4.2559375 17.1884375 -5.546875 17.140625 C-9.45703292 16.45059713 -10.71085229 15.72699086 -13 12.53125 C-13.53125 10.53125 -13.53125 10.53125 -13.5 8.53125 C-13.51546875 7.54125 -13.51546875 7.54125 -13.53125 6.53125 C-11.69061453 -0.39820116 -5.94975317 -0.05723107 0 0 Z " fill="#000000" transform="translate(237,79.46875)"/>
<path d="M0 0 C0.99386719 -0.03287109 1.98773438 -0.06574219 3.01171875 -0.09960938 C7.74227514 -0.13443944 10.31877487 -0.1205792 14.28515625 2.625 C17.26374758 7.17826063 16.96447585 11.18499975 16.125 16.4375 C14.14422537 20.4697912 12.41745529 22.90448025 8.125 24.4375 C8.86435371 27.39491483 9.30281324 29.06251501 11.125 31.4375 C13.91546404 32.79045226 16.64592481 33.6757949 19.62890625 34.515625 C22.125 35.4375 22.125 35.4375 24.125 38.4375 C24.76991363 45.20909309 24.76991363 45.20909309 22.8125 48.9375 C18.41330279 51.39286589 14.03583983 51.15848202 9.125 50.4375 C6.90684504 49.5039331 4.91244539 48.40646027 2.83203125 47.203125 C1.00910812 46.17867555 1.00910812 46.17867555 -1.5625 47.0625 C-2.325625 47.51625 -3.08875 47.97 -3.875 48.4375 C-9.19488973 50.89840137 -14.0941109 51.13120669 -19.875 50.4375 C-22.5625 48.9375 -22.5625 48.9375 -23.875 46.4375 C-24.62216848 42.51687398 -24.56734359 39.55127013 -22.4375 36.125 C-19.94043912 34.48059405 -18.15695153 33.90328641 -15.3125 33.125 C-11.95065487 32.16320683 -11.95065487 32.16320683 -9.625 29.6953125 C-8.68705088 27.55863957 -8.68705088 27.55863957 -7.875 24.4375 C-8.74125 24.128125 -8.74125 24.128125 -9.625 23.8125 C-13.26258679 21.5895303 -15.24675258 18.56844733 -16.453125 14.4765625 C-17.30650474 9.63456004 -16.67103618 6.63155427 -13.875 2.4375 C-9.42920106 -0.52636596 -5.23252419 0.03030419 0 0 Z " fill="#000000" transform="translate(159.875,301.5625)"/>
<path d="M0 0 C4.18324213 2.60039376 5.02979551 6.54826504 6.2890625 11.07421875 C6.82305062 13.19660691 6.82305062 13.19660691 9 14 C13.07014809 14.46122653 13.07014809 14.46122653 16.59765625 12.76953125 C18.69482263 10.1232461 19.2695925 7.27272718 20.15625 4.05859375 C21 2 21 2 24 0 C30.77159309 -0.64491363 30.77159309 -0.64491363 34.5 1.3125 C37.26073393 6.25881497 36.86801898 11.87513168 35.375 17.25 C32.67788111 23.41484317 27.64718927 28.16416648 21.671875 31.171875 C15.19785035 33.17844404 6.82722423 33.2761327 0.5625 30.5 C-5.29220187 26.96199737 -9.91990869 21.51500298 -12 15 C-12.58984861 10.16461317 -12.91165994 5.63339073 -10.5 1.3125 C-6.93296838 -0.5601916 -3.94163207 -0.77207226 0 0 Z " fill="#000000" transform="translate(188,264)"/>
<path d="M0 0 C4.18324213 2.60039376 5.02979551 6.54826504 6.2890625 11.07421875 C6.82305062 13.19660691 6.82305062 13.19660691 9 14 C13.07014809 14.46122653 13.07014809 14.46122653 16.59765625 12.76953125 C18.69482263 10.1232461 19.2695925 7.27272718 20.15625 4.05859375 C21 2 21 2 24 0 C30.77159309 -0.64491363 30.77159309 -0.64491363 34.5 1.3125 C37.26073393 6.25881497 36.86801898 11.87513168 35.375 17.25 C32.67788111 23.41484317 27.64718927 28.16416648 21.671875 31.171875 C15.19785035 33.17844404 6.82722423 33.2761327 0.5625 30.5 C-5.29220187 26.96199737 -9.91990869 21.51500298 -12 15 C-12.58984861 10.16461317 -12.91165994 5.63339073 -10.5 1.3125 C-6.93296838 -0.5601916 -3.94163207 -0.77207226 0 0 Z " fill="#000000" transform="translate(108,264)"/>
</svg>
